{"title":"Priscilla Queen of the Desert (1994) (Optional MULTISUBS)","uid":4535161,"size":757516792,"categoryP":"video","categoryS":"movies","magnet":"?xt=urn:btih:1906776d2e1f00c7c69f6628be12661b17dc474b&amp;dn=Priscilla+Queen+of+the+Desert+%281994%29+%28Optional+MULTISUBS%29&amp;tr=udp%3A%2F%2Ftracker.openbittorrent.com%3A80&amp;tr=udp%3A%2F%2Fopen.demonii.com%3A1337&amp;tr=udp%3A%2F%2Ftracker.coppersurfer.tk%3A6969&amp;tr=udp%3A%2F%2Fexodus.desync.com%3A6969","seeders":19,"leechers":5,"uploader":"Kuthumi","files":-1,"time":1227711858,"description":"aka:\nPriscilla, Queen of the Desert (1994) \nThe Adventures of Priscilla, Queen of the Desert (1994)\nThe Adventures of Priscilla Queen of the Desert (1994) \n &lt;a href=&quot;\nhttp://www.imdb.com/title/tt0109045/&quot; rel=&quot;nofollow&quot; target=&quot;_NEW&quot;&gt;\nhttp://www.imdb.com/title/tt0109045/&lt;/a&gt;\n\nOptional subtitles in separate idx/sub files:\nDanish, Dutch, English, Finnish, French, German, Norwegian, Swedish.\n\nIt's the Australian film that blitzed overseas box offices. It caused a near riot at the Cannes Film Festival. It won an Academy Award. It's fun, daring, over-the-top and unforgettable. \n\nP.S.: This is the film where the attractive wife of a bar owner insists on shooting ping-pong balls from an unmentionable body part. On stage!\n\nMy new ripping procedure now produces decent quality for just 700 MiB. \nI enclose a sample for ye weak in faith. \n\nWidescreen DVDrip XviD 2-pass 720x288, really great stereo sound AC3.\nBurn tested, runs well in both my standalone DivX players.\n\nMediaInfo analysis:\nFormat/Info                      : Audio Video Interleave\nFile size                        : 696 MiB\nDuration                         : 1h 38mn\nOveral bit rate                  : 984 Kbps\n\nVideo\nFormat                           : MPEG-4 Visual\nFormat profile                   : Streaming Video@L1\nFormat settings, BVOP            : Yes\nFormat settings, QPel            : No\nFormat settings, GMC             : No warppoints\nFormat settings, Matrix          : Default\nMuxing mode                      : Packet Bitstream\nCodec ID                         : XVID\nCodec ID/Hint                    : XviD\nDuration                         : 1h 38mn\nBit rate                         : 847 Kbps\nWidth                            : 720 pixels\nHeight                           : 288 pixels\nDisplay aspect ratio             : 2.500\nFrame rate                       : 25.000 fps\nResolution                       : 8 bits\nColorimetry                      : 4:2:0\nScan type                        : Progressive\nBits/(Pixel*Frame)               : 0.163\nStream size                      : 598 MiB\nWriting library                  : XviD 1.2.0.dev47 (UTC 2006-11-01)\n\nAudio\nFormat                           : MPEG Audio\nFormat version                   : Version 1\nFormat profile                   : Layer 3\nCodec ID                         : 55\nCodec ID/Hint                    : MP3\nDuration                         : 1h 38mn\nBit rate mode                    : Constant\nBit rate                         : 128 Kbps\nMinimum bit rate                 : 128 Kbps\nChannel(s)                       : 2 channels\nSampling rate                    : 48.0 KHz\nResolution                       : 16 bits\nStream size                      : 90.5 MiB\nWriting library                  : LAME3.97 \nEncoding settings                : CBR\n\nSource: PAL retail (note that PAL/NTSC will give no problems for avi files).","torrent":{"xt":"urn:btih:1906776d2e1f00c7c69f6628be12661b17dc474b","amp;dn":"Priscilla+Queen+of+the+Desert+%281994%29+%28Optional+MULTISUBS%29","amp;tr":["udp%3A%2F%2Ftracker.openbittorrent.com%3A80","udp%3A%2F%2Fopen.demonii.com%3A1337","udp%3A%2F%2Ftracker.coppersurfer.tk%3A6969","udp%3A%2F%2Fexodus.desync.com%3A6969"],"infoHash":"1906776d2e1f00c7c69f6628be12661b17dc474b","infoHashBuffer":{"type":"Buffer","data":[25,6,119,109,46,31,0,199,198,159,102,40,190,18,102,27,23,220,71,75]},"announce":[],"urlList":[]}}